# xmcd
# 
# Track frame offsets:
#     150
#     11117
#     24545
#     39645
#     60392
#     77632
#     114940
#     115600
#     124612
#     138947
#     159010
#     174295
#     203912
# 
# Disc length: 2741
# 
# Revision: 8
# Processed by: cddbd v1.5.2PL0 Copyright (c) Steve Scherf et al.
# Submitted via: BonkEnc v1.0.6
# 
DISCID=950ab30d
DTITLE=Thee Michelle Gun Elephant - Chicken Zombies
DYEAR=1997
DGENRE=Rock
TTITLE0=Russian Huskey
TTITLE1=Hi! China!
TTITLE2=Mongoose
TTITLE3=Get Up Lucy (Album Version)
TTITLE4=The Birdmen
TTITLE5=Boogie
TTITLE6=I've never been you. (Jesus Time)
TTITLE7=Cow
TTITLE8=Culture (Album Version)
TTITLE9=Sunny Side River
TTITLE10=Bronze Master
TTITLE11=Romantic (Broiler Dinner Version)
TTITLE12=I've never been you. (King Time)
EXTD=YEAR: 1997
EXTT0=
EXTT1=
EXTT2=
EXTT3=
EXTT4=
EXTT5=
EXTT6=
EXTT7=
EXTT8=
EXTT9=
EXTT10=
EXTT11=
EXTT12=
PLAYORDER=
